<svg xmlns="http://www.w3.org/2000/svg" width="24" height="24" viewBox="0 0 24 24"><g transform="translate(-2 -2)"><path d="M15.4,15A2.4,2.4,0,0,0,13,17.4v3.595a2.4,2.4,0,0,0,2.4,2.4h.029a18.3,18.3,0,0,0,3.867-.318,5.464,5.464,0,0,0,2.773-1.4,5.464,5.464,0,0,0,1.4-2.773,12.177,12.177,0,0,0,.23-1.5A2.251,2.251,0,0,0,21.388,15Z" transform="translate(2.216 2.612)" fill="#303030"/><path d="M2,15.822V13.4A2.4,2.4,0,0,1,4.4,11h5.991a2.4,2.4,0,0,1,2.4,2.4v8.388a2.4,2.4,0,0,1-2.4,2.4h-.029a18.3,18.3,0,0,1-3.867-.318,5.464,5.464,0,0,1-2.772-1.4,5.464,5.464,0,0,1-1.4-2.773A18.3,18.3,0,0,1,2,15.822Z" transform="translate(0 1.819)" fill="#303030"/><path d="M23.784,12.784a2.4,2.4,0,0,1-2.4,2.4H15.4a2.4,2.4,0,0,1-2.4-2.4V4.4A2.4,2.4,0,0,1,15.4,2h.029a18.3,18.3,0,0,1,3.867.318,5.464,5.464,0,0,1,2.773,1.4,5.464,5.464,0,0,1,1.4,2.772,18.3,18.3,0,0,1,.318,3.867Z" transform="translate(2.216)" fill="#303030"/><path d="M12.771,4.4a2.4,2.4,0,0,0-2.4-2.4h-.029a18.3,18.3,0,0,0-3.867.318,5.464,5.464,0,0,0-2.772,1.4,5.464,5.464,0,0,0-1.4,2.772,12.186,12.186,0,0,0-.23,1.5,2.251,2.251,0,0,0,2.308,2.394h5.991a2.4,2.4,0,0,0,2.4-2.4Z" transform="translate(0.013)" fill="#303030"/></g></svg>