<svg xmlns="http://www.w3.org/2000/svg" width="21.764" height="24.182" viewBox="0 0 21.764 24.182">
  <g id="download-pdf-1" transform="translate(-3 -2)">
    <path id="Path_85027" data-name="Path 85027" d="M12.742,17.353a1.209,1.209,0,0,1,1.572-1.773V14.209a1.209,1.209,0,0,1,2.418,0V15.58A1.209,1.209,0,0,1,18.3,17.353L16.49,19.771a1.209,1.209,0,0,1-1.935,0Z" transform="translate(1.987 2.3)" fill="#303030"/>
    <path id="Path_85028" data-name="Path 85028" d="M22.346,13.52V5.627A3.627,3.627,0,0,0,18.719,2H10.255a1.209,1.209,0,0,0-.929.435L3.28,9.69a1.209,1.209,0,0,0-.28.774V22.555a3.627,3.627,0,0,0,3.627,3.627H17.509A7.255,7.255,0,0,0,22.346,13.52Zm-3.627-9.1H11.464v6.046a1.209,1.209,0,0,1-1.209,1.209H5.418V22.555a1.209,1.209,0,0,0,1.209,1.209H12.1a7.257,7.257,0,0,1,7.826-11.678V5.627a1.209,1.209,0,0,0-1.209-1.209ZM20.39,15.042l.043.032a4.809,4.809,0,1,1-.043-.032Z" fill="#303030" fill-rule="evenodd"/>
  </g>
</svg>
