<svg xmlns="http://www.w3.org/2000/svg" xmlns:xlink="http://www.w3.org/1999/xlink" width="68" height="68" viewBox="0 0 68 68">
  <defs>
    <linearGradient id="linear-gradient" x1="1.381" y1="1.338" x2="0.028" gradientUnits="objectBoundingBox">
      <stop offset="0" stop-color="#2cfdb2"/>
      <stop offset="1" stop-color="#00d2d9"/>
    </linearGradient>
    <filter id="Rectangle_7" x="0" y="0" width="68" height="68" filterUnits="userSpaceOnUse">
      <feOffset dy="3" input="SourceAlpha"/>
      <feGaussianBlur stdDeviation="3" result="blur"/>
      <feFlood flood-opacity="0.161"/>
      <feComposite operator="in" in2="blur"/>
      <feComposite in="SourceGraphic"/>
    </filter>
  </defs>
  <g id="edit-img" transform="translate(-1208 -446)">
    <g transform="matrix(1, 0, 0, 1, 1208, 446)" filter="url(#Rectangle_7)">
      <rect id="Rectangle_7-2" data-name="Rectangle 7" width="50" height="50" rx="25" transform="translate(9 6)" fill="url(#linear-gradient)"/>
    </g>
    <g id="pencil" transform="translate(1232.674 467.832)">
      <path id="Path_871" data-name="Path 871" d="M11.428,82.473,1.246,92.655a.406.406,0,0,0-.106.186L.011,97.371a.4.4,0,0,0,.389.5.4.4,0,0,0,.1-.012l4.53-1.129a.4.4,0,0,0,.186-.106L15.4,86.441Zm0,0" transform="translate(0 -79.137)" fill="#fff"/>
      <path id="Path_872" data-name="Path 872" d="M339.684,1.948,338.551.814a2.052,2.052,0,0,0-2.834,0L334.328,2.2,338.3,6.171l1.388-1.388a2,2,0,0,0,0-2.834Zm0,0" transform="translate(-321.766 0)" fill="#fff"/>
    </g>
  </g>
</svg>
