<svg id="facebook" xmlns="http://www.w3.org/2000/svg" width="41.144" height="41.144" viewBox="0 0 41.144 41.144">
  <path id="Path_599" data-name="Path 599" d="M41.144,20.572A20.577,20.577,0,0,1,23.786,40.894V26.519H28.58l.912-5.947H23.786V16.713c0-1.627.8-3.213,3.353-3.213h2.594V8.438a31.642,31.642,0,0,0-4.605-.4c-4.7,0-7.77,2.848-7.77,8v4.532H12.134v5.947h5.223V40.894A20.573,20.573,0,1,1,41.144,20.572Z" fill="#1877f2"/>
  <path id="Path_600" data-name="Path 600" d="M167.446,118.483l.912-5.947h-5.706v-3.859c0-1.627.8-3.213,3.353-3.213H168.6V100.4a31.635,31.635,0,0,0-4.605-.4c-4.7,0-7.77,2.848-7.77,8v4.532H151v5.947h5.223v14.375a20.789,20.789,0,0,0,6.429,0V118.483Z" transform="translate(-138.866 -91.964)" fill="#fff"/>
</svg>
