<svg id="features-6" xmlns="http://www.w3.org/2000/svg" width="51" height="51" viewBox="0 0 51 51">
  <path id="Path_84969" data-name="Path 84969" d="M56,0V37.839H83.968V0ZM71.629,33.726H60.113V27.145H71.629ZM78.21,22.21H61.758V20.579a3.291,3.291,0,0,1,2.386-3.164l3.372-.963V14.963a4.929,4.929,0,0,1-2.468-4.27V9.048a4.935,4.935,0,0,1,9.871,0v1.645a4.929,4.929,0,0,1-2.468,4.27v1.488l3.372.963a3.291,3.291,0,0,1,2.386,3.164Zm0,0" transform="translate(-50.242)" fill="#00e4b9"/>
  <path id="Path_84970" data-name="Path 84970" d="M46.887,13.161H45.242V7.253L43.011,1.3a2.01,2.01,0,0,0-3.764,0l-2.231,5.95v5.908h-3.29v1.645h3.29V33.726a4.113,4.113,0,1,0,8.226,0V14.806h1.645a2.471,2.471,0,0,1,2.468,2.468v22.21H1.645V17.274a2.471,2.471,0,0,1,2.468-2.468H5.758V13.161H4.113A4.118,4.118,0,0,0,0,17.274V41.952a4.118,4.118,0,0,0,4.113,4.113H14.806v3.29h-3.29V51H39.484V49.355h-3.29v-3.29H46.887A4.118,4.118,0,0,0,51,41.952V17.274A4.118,4.118,0,0,0,46.887,13.161ZM40.306,8.226V29.613H38.661V8.226Zm1.645,0H43.6V29.613H41.952ZM40.788,1.881a.379.379,0,0,1,.682,0l1.763,4.7H39.026Zm.341,34.312a2.471,2.471,0,0,1-2.468-2.468V31.258H43.6v2.468A2.471,2.471,0,0,1,41.129,36.194ZM34.548,49.355h-18.1v-3.29h18.1Zm12.339-4.935H4.113a2.471,2.471,0,0,1-2.468-2.468v-.823h47.71v.823A2.471,2.471,0,0,1,46.887,44.419Zm0,0" fill="#00c2c5"/>
  <path id="Path_84971" data-name="Path 84971" d="M122.1,49.29a4.133,4.133,0,0,0-2.983-3.956l-2.775-.793v-.419a5.752,5.752,0,0,0,2.468-4.718V37.759a5.758,5.758,0,1,0-11.516,0V39.4a5.751,5.751,0,0,0,2.468,4.718v.419l-2.775.794A4.131,4.131,0,0,0,104,49.289v2.453h18.1ZM111.4,44.919a5.7,5.7,0,0,0,3.29,0v.243a1.645,1.645,0,1,1-3.29,0ZM108.935,39.4V37.759a4.113,4.113,0,1,1,8.226,0V39.4a4.113,4.113,0,0,1-8.226,0ZM120.452,50.1H105.645V49.29a2.48,2.48,0,0,1,1.79-2.373l2.507-.716a3.268,3.268,0,0,0,6.212,0l2.508.715a2.481,2.481,0,0,1,1.79,2.374Zm0,0" transform="translate(-93.306 -28.71)" fill="#00c2c5"/>
  <path id="Path_84972" data-name="Path 84972" d="M232,256h6.581v1.645H232Zm0,0" transform="translate(-208.145 -229.677)" fill="#00c2c5"/>
  <path id="Path_84973" data-name="Path 84973" d="M232,288h6.581v1.645H232Zm0,0" transform="translate(-208.145 -258.387)" fill="#00c2c5"/>
  <path id="Path_84974" data-name="Path 84974" d="M232,320h6.581v1.645H232Zm0,0" transform="translate(-208.145 -287.097)" fill="#00c2c5"/>
  <path id="Path_84975" data-name="Path 84975" d="M101.161,256H88v8.226h13.161Zm-1.645,6.581H89.645v-4.935h9.871Zm0,0" transform="translate(-78.952 -229.677)" fill="#00c2c5"/>
</svg>
