<svg xmlns="http://www.w3.org/2000/svg" width="50.991" height="51" viewBox="0 0 50.991 51">
  <g id="features-7" transform="translate(-0.048)">
    <path id="Path_84976" data-name="Path 84976" d="M52.116,55.781a5.293,5.293,0,0,1,3.476-4.976,5.278,5.278,0,0,0-9.641,2.984c.1,5.085,3.488,9.214,7.5,12.218a5.1,5.1,0,0,0,4.637.763C54.78,63.9,52.206,60.2,52.116,55.781Zm-26.093.52V27.282a6.268,6.268,0,0,1,4.532-6.031l-1.87-.777a6.274,6.274,0,0,0-8.638,5.812V55.3a8.963,8.963,0,0,0,5.587,8.3l6.007,2.443L31.61,64.6a8.963,8.963,0,0,1-5.587-8.3Z" transform="translate(-18.008 -18.013)" fill="#00e4b9"/>
    <path id="Path_84977" data-name="Path 84977" d="M26.262,47.063A1.992,1.992,0,0,1,24.9,49.528s-4.374,1.255-4.44,1.267a12.931,12.931,0,0,1-7.174-.749L6.876,47.439A10.912,10.912,0,0,1,.048,37.292V8.273A8.266,8.266,0,0,1,11.428.616L17.175,3,30.628.206A12.928,12.928,0,0,1,37.8.954L44.21,3.56a10.912,10.912,0,0,1,6.828,10.148v10.2a1.992,1.992,0,0,1-3.984,0v-10.2A6.944,6.944,0,0,0,42.71,7.251L36.3,4.644a8.95,8.95,0,0,0-4.941-.523L17.384,7.03a1.992,1.992,0,0,1-1.17-.111L9.921,4.3a4.292,4.292,0,0,0-5.889,3.97V37.292a6.944,6.944,0,0,0,4.345,6.458l6.409,2.606a8.951,8.951,0,0,0,4.871.535L23.8,45.7a1.992,1.992,0,0,1,2.465,1.364Zm24.776-11.3C51.039,35.776,51.039,35.749,51.039,35.762Zm-25.2,0C25.842,35.749,25.842,35.776,25.842,35.762Zm25.2,0c-.1,5.021-2.971,9.837-8.3,13.826a7.123,7.123,0,0,1-8.493,0c-5.326-3.988-8.305-8.8-8.407-13.826a7.367,7.367,0,0,1,12.653-5,7.283,7.283,0,0,1,12.543,5Zm-3.984-.005a3.284,3.284,0,0,0-6.568,0,1.992,1.992,0,0,1-3.984,0,3.284,3.284,0,0,0-6.568,0c.106,4.727,3.7,8.4,6.7,10.642a3.118,3.118,0,0,0,3.718,0C43.354,44.153,46.949,40.484,47.055,35.757Z" transform="translate(0 0)" fill="#00c2c5"/>
    <path id="Path_84978" data-name="Path 84978" d="M172.373,96.822a1.992,1.992,0,0,1-1.992-1.992V82.083a1.992,1.992,0,0,1,3.984,0V94.83A1.992,1.992,0,0,1,172.373,96.822Zm-14.341,16.324V84.962a1.992,1.992,0,0,0-3.984,0v28.184a1.992,1.992,0,1,0,3.984,0Z" transform="translate(-138.663 -72.115)" fill="#00e4b9"/>
  </g>
</svg>
