<svg xmlns="http://www.w3.org/2000/svg" width="33.287" height="31.163" viewBox="0 0 33.287 31.163">
  <g id="healthy-food" transform="translate(0 -0.5)">
    <path id="Path_700" data-name="Path 700" d="M270.419,31.967c0,4.521-2.922,8.221-6.494,8.221h-3.81a5.337,5.337,0,0,1-2.771-.792c-2.429-1.463-3.723-4.5-3.723-7.429a7.56,7.56,0,0,1,2.037-5.316,7.446,7.446,0,0,0,1.655-2.642,9.24,9.24,0,0,0,.538-2.332c.032-.317.048-.639.048-.963,0-2.87,1.855-5.217,4.122-5.217a3.737,3.737,0,0,1,2.911,1.533,5.964,5.964,0,0,1,1.211,3.685,8.475,8.475,0,0,0,2.24,5.938,6.812,6.812,0,0,1,1.483,2.32,8.232,8.232,0,0,1,.554,3Zm0,0" transform="translate(-237.132 -14.021)" fill="#35e298"/>
    <path id="Path_701" data-name="Path 701" d="M261.67,118.247a9.94,9.94,0,0,1-1.263,4.466l-3.063,5.569c-2.43-1.463-3.723-4.5-3.723-7.429a7.559,7.559,0,0,1,2.037-5.316,7.453,7.453,0,0,0,1.655-2.642,9.24,9.24,0,0,0,.537-2.332,7.019,7.019,0,0,1,3.284,4.115,9.945,9.945,0,0,1,.535,3.57Zm0,0" transform="translate(-237.132 -102.907)" fill="#1ab975"/>
    <path id="Path_702" data-name="Path 702" d="M319.341,202.827a4.893,4.893,0,1,1-4.893-4.893A4.893,4.893,0,0,1,319.341,202.827Zm0,0" transform="translate(-289.429 -184.598)" fill="#ae583e"/>
    <path id="Path_703" data-name="Path 703" d="M313.869,198.516a4.9,4.9,0,0,0-2.392,8.72l1.258-2.287a9.759,9.759,0,0,0,1.134-6.433Zm0,0" transform="translate(-289.46 -185.143)" fill="#7c3f2c"/>
    <path id="Path_704" data-name="Path 704" d="M56.662,5.062C56.406,3.9,55.087-.319,49.515.64a.249.249,0,0,0-.182.352c.577,1.212,3.025,5.7,7.1,4.455a.33.33,0,0,0,.228-.386Zm0,0" transform="translate(-46.103 0)" fill="#1ed688"/>
    <path id="Path_705" data-name="Path 705" d="M56.435,5.5c-4.075,1.25-6.523-3.242-7.1-4.455a.249.249,0,0,1,.182-.352A9.367,9.367,0,0,1,50.857.551c.855,1.508,2.769,4.141,5.636,3.938.081.249.136.463.17.621a.33.33,0,0,1-.229.385Zm0,0" transform="translate(-46.104 -0.048)" fill="#1ab975"/>
    <path id="Path_706" data-name="Path 706" d="M159.361,9.44a.5.5,0,0,1-.505-.505V1.72a.505.505,0,0,1,1.01,0V8.935A.5.5,0,0,1,159.361,9.44Zm0,0" transform="translate(-148.527 -0.669)" fill="#c0694e"/>
    <path id="Path_707" data-name="Path 707" d="M20.4,111.915l-3.555,6.465a3.583,3.583,0,0,1-4.662,1.193,2.9,2.9,0,0,0-2.691,0,3.58,3.58,0,0,1-4.662-1.193l-3.556-6.465a9.807,9.807,0,0,1-.727-8.036,6.708,6.708,0,0,1,4.7-4.667,5.913,5.913,0,0,1,1.449-.2c.083,0,.129,0,.129,0a5.771,5.771,0,0,1,1.892.316,5.47,5.47,0,0,1,1.594.871.816.816,0,0,0,1.063,0,5.464,5.464,0,0,1,1.595-.871,5.766,5.766,0,0,1,1.891-.316s4.5-.287,6.273,4.863a9.8,9.8,0,0,1-.728,8.036Zm0,0" transform="translate(0 -92.109)" fill="#c42d2d"/>
    <path id="Path_708" data-name="Path 708" d="M66.984,111.915l-3.555,6.465a3.583,3.583,0,0,1-4.662,1.193,2.9,2.9,0,0,0-2.691,0,3.607,3.607,0,0,1-1.414.4c-.027-.054-2.85-6.263-3.57-7.846-2.153-4.733-1.318-10.007.735-12.912a5.913,5.913,0,0,1,1.449-.2c.083,0,.129,0,.129,0a5.771,5.771,0,0,1,1.892.316,5.47,5.47,0,0,1,1.594.871.816.816,0,0,0,1.063,0,5.465,5.465,0,0,1,1.595-.871,5.766,5.766,0,0,1,1.891-.316s4.5-.287,6.273,4.863a9.8,9.8,0,0,1-.728,8.036Zm0,0" transform="translate(-46.588 -92.109)" fill="#f44545"/>
    <path id="Path_709" data-name="Path 709" d="M5.243,320.268a1.161,1.161,0,0,0-.485,1.569,7.47,7.47,0,0,0,1.286,1.743l-3.873-.431a1.161,1.161,0,1,0-.257,2.308l3.873.431a7.474,7.474,0,0,0-1.638,1.417,1.161,1.161,0,0,0,1.765,1.509c1.327-1.551,3.732-2.217,5.767-2.283a1.16,1.16,0,0,0,.215-2.292c-.037-.008-3.717-.895-5.084-3.486a1.161,1.161,0,0,0-1.569-.485Zm0,0" transform="translate(-0.824 -298.854)" fill="#1ab975"/>
    <path id="Path_710" data-name="Path 710" d="M162.939,338.867a2.943,2.943,0,0,1-2.919,2.617l-16.4.032a4.809,4.809,0,1,1,1.061-9.5l13.906,3.177.993.227,1.087.249a2.943,2.943,0,0,1,2.27,3.194Zm0,0" transform="translate(-129.78 -309.854)" fill="#ffa90b"/>
    <path id="Path_711" data-name="Path 711" d="M171.035,338.052a2.937,2.937,0,0,1-2.332,1.155l-16.4.032a3.8,3.8,0,1,1-.581-7.34,4.66,4.66,0,0,1,.58.036,4.744,4.744,0,0,1,.5.086l.5.113,13.409,3.064.993.227,1.087.249a2.941,2.941,0,0,1,2.247,2.379Zm0,0" transform="translate(-137.899 -309.853)" fill="#ffb52d"/>
    <g id="Group_345" data-name="Group 345" transform="translate(14.043 22.081)">
      <path id="Path_712" data-name="Path 712" d="M438.387,382.868,438,386.773a.505.505,0,0,1-.5.449.529.529,0,0,1-.057,0,.506.506,0,0,1-.447-.558l.395-4.02Zm0,0" transform="translate(-422.628 -379.378)" fill="#f29500"/>
      <path id="Path_713" data-name="Path 713" d="M226.669,422.454l-.34,3.2-1.017,0,.352-3.315a.505.505,0,1,1,1,.112Zm0,0" transform="translate(-224.707 -416.078)" fill="#f29500"/>
      <path id="Path_714" data-name="Path 714" d="M370.55,438.309l-.224,2.153-1.017,0,.236-2.267a.505.505,0,0,1,1,.112Zm0,0" transform="translate(-359.341 -430.902)" fill="#f29500"/>
      <path id="Path_715" data-name="Path 715" d="M310.2,352.821l-.151,1.7a.506.506,0,0,1-.5.45.53.53,0,0,1-.057,0,.5.5,0,0,1-.446-.558l.162-1.812Zm0,0" transform="translate(-302.991 -351.284)" fill="#f29500"/>
      <path id="Path_716" data-name="Path 716" d="M278.674,440l-.212,2.054-1.016,0,.224-2.168a.505.505,0,1,1,1,.112Zm0,0" transform="translate(-273.45 -432.48)" fill="#f29500"/>
      <path id="Path_717" data-name="Path 717" d="M217.347,332.649l-.35,3.137a.506.506,0,0,1-.5.449.53.53,0,0,1-.057,0,.505.505,0,0,1-.446-.558l.356-3.194c0-.01,0-.02,0-.03a4.739,4.739,0,0,1,.5.086Zm0,0" transform="translate(-215.99 -332.45)" fill="#f29500"/>
    </g>
  </g>
</svg>
