<svg xmlns="http://www.w3.org/2000/svg" xmlns:xlink="http://www.w3.org/1999/xlink" width="245.908" height="53.11" viewBox="0 0 245.908 53.11"><defs><linearGradient id="a" x1="1.544" y1="1.792" x2="-2.269" y2="-3.621" gradientUnits="objectBoundingBox"><stop offset="0" stop-color="#0ab1d8"/><stop offset="1" stop-color="#00dee0"/></linearGradient><linearGradient id="b" x1="1.557" y1="1.406" x2="0.223" y2="0.094" xlink:href="#a"/><linearGradient id="c" x1="0.065" y1="0.836" x2="3.878" y2="-3.936" gradientUnits="objectBoundingBox"><stop offset="0" stop-color="#21feb8"/><stop offset="1" stop-color="#b6feb8"/></linearGradient><linearGradient id="d" x1="-0.366" y1="1.129" x2="0.971" y2="-0.026" xlink:href="#c"/><linearGradient id="e" x1="0.016" y1="0.916" x2="0.98" y2="0.086" gradientUnits="objectBoundingBox"><stop offset="0" stop-color="#0ab1d8"/><stop offset="1" stop-color="#21feb8"/></linearGradient></defs><g transform="translate(-60 -62)"><g transform="translate(60.002 62.093)"><g transform="translate(-0.002 -0.093)"><path d="M47.938,36.613A68.579,68.579,0,0,0,36.12,31.957,68.071,68.071,0,0,1,45.619,30l2.857,6.134a.4.4,0,0,1-.538.479Z" transform="translate(-0.782 -0.56)" fill="url(#a)"/><path d="M32.519,2.9l2.818,6.036L25.827,29.393a68.558,68.558,0,0,0-9.519-.675H12.894a1.624,1.624,0,0,1-1.467-.978L.1,3.409A.978.978,0,0,1,.978,2H31.061a1.6,1.6,0,0,1,1.458.9Z" transform="translate(0.002 0.047)" fill="url(#b)"/><path d="M23.479,36.095,26.336,30a68.483,68.483,0,0,1,9.509,1.957,67.963,67.963,0,0,0-11.857,4.657.4.4,0,0,1-.509-.519Z" transform="translate(-0.507 -0.56)" fill="url(#c)"/><path d="M40.4,2H70.439a.978.978,0,0,1,.91,1.438L60.02,27.739a1.624,1.624,0,0,1-1.467.978H55.138a68.559,68.559,0,0,0-9.519.675L36.12,8.936,38.938,2.9A1.614,1.614,0,0,1,40.4,2Z" transform="translate(-0.782 0.047)" fill="url(#d)"/><path d="M45.408,29.546a68.069,68.069,0,0,0-9.5,1.957A68.481,68.481,0,0,0,26.4,29.546L35.909,9.09Z" transform="translate(-0.571 -0.107)" fill="#16d8c8"/><path d="M35.8,9.09,26.29,29.546c-1.644-.235-3.3-.382-4.96-.489Z" transform="translate(-0.461 -0.107)" fill="#1585b7" opacity="0.8"/><path d="M96.321,32.132a12.415,12.415,0,0,1-6.075,1.6c-4.168,0-7.318-2.387-7.318-7.22V15.755H79.66v-4.6h3.268V4.7H89.56v6.427H95.9v4.627H89.551v9.627c0,1.957.832,2.739,2.26,2.7a7.826,7.826,0,0,0,3.121-.871Z" transform="translate(-1.726 -0.011)" fill="#1f2123"/><path d="M122.3,23.911H105.55a5.958,5.958,0,0,0,6.026,4.676,8.276,8.276,0,0,0,5.87-2.465l3.512,3.551a13.021,13.021,0,0,1-9.979,4.128c-7.464,0-12.2-4.774-12.2-11.847S103.72,10,110.842,10C119.041,10,122.866,15.41,122.3,23.911ZM116.047,20a4.892,4.892,0,0,0-5.165-5.087c-2.935,0-4.94,1.957-5.469,5.087Z" transform="translate(-2.141 -0.126)" fill="#1f2123"/><path d="M135.886,27.711a5.469,5.469,0,0,0,2.26-.646l.646,5.557a10.448,10.448,0,0,1-4.422,1.037c-3.913,0-7.21-2.6-7.21-8.032V1.17h6.692V25.2C133.852,26.939,134.673,27.711,135.886,27.711Z" transform="translate(-2.757 0.065)" fill="#1f2123"/><path d="M149.192,10.2V33.552H142.51V10.2Z" transform="translate(-3.09 -0.131)" fill="#1f2123"/><path d="M149.106,3.344a3.258,3.258,0,1,1-6.506,0,3.258,3.258,0,1,1,6.506,0Z" transform="translate(-3.092 0.093)" fill="url(#e)"/><path d="M194.862,19.5V33.56h-3.385v-13.2c0-4.119-2.387-6.545-6.339-6.545-4.725.127-7.464,3.551-7.464,8.5V33.56h-3.424v-13.2c0-4.119-2.348-6.545-6.339-6.545-4.686.127-7.5,3.551-7.5,8.5V33.56H157.06V10.737h3.346v5.146c1.516-3.561,4.6-5.253,8.717-5.3,4.295,0,7.249,2.172,8.208,5.948,1.428-3.991,4.637-5.87,9.02-5.948C191.692,10.6,194.862,13.926,194.862,19.5Z" transform="translate(-3.406 -0.139)" fill="#1f2123"/><path d="M223.242,23.406H204.576a8.081,8.081,0,0,0,8.3,7.464,9.578,9.578,0,0,0,7.073-2.935l1.869,1.957a12.19,12.19,0,0,1-9.206,3.766c-6.731,0-11.368-4.725-11.368-11.544S205.9,10.649,212.569,10.6C219.945,10.6,223.584,15.677,223.242,23.406Zm-3.043-2.69a7.2,7.2,0,0,0-7.631-7.288,7.709,7.709,0,0,0-7.993,7.288Z" transform="translate(-4.364 -0.139)" fill="#1f2123"/><path d="M250.843,1.15V33.356h-3.385V28.464a9.538,9.538,0,0,1-8.893,5.077c-6.516,0-11.026-4.823-11.026-11.632s4.51-11.544,10.977-11.544a9.578,9.578,0,0,1,8.942,5.117V1.15Zm-3.385,20.838c0-5.038-3.424-8.678-8.247-8.678s-8.286,3.639-8.286,8.678,3.434,8.638,8.286,8.638S247.458,27.016,247.458,21.988Z" transform="translate(-4.935 0.066)" fill="#1f2123"/></g></g><path d="M7.881,0H6.49L2.306-6.332V0H.915V-8.491H2.306L6.49-2.172v-6.32H7.881Zm7.991-3.526a4.348,4.348,0,0,1-.049.683H10.687a1.865,1.865,0,0,0,.6,1.293,1.887,1.887,0,0,0,1.318.488A1.627,1.627,0,0,0,14.189-2h1.5a3.028,3.028,0,0,1-1.1,1.519A3.239,3.239,0,0,1,12.6.11a3.433,3.433,0,0,1-1.726-.433,3.081,3.081,0,0,1-1.2-1.22,3.722,3.722,0,0,1-.433-1.824,3.809,3.809,0,0,1,.421-1.824,2.96,2.96,0,0,1,1.183-1.214A3.522,3.522,0,0,1,12.6-6.832a3.424,3.424,0,0,1,1.7.415,2.931,2.931,0,0,1,1.159,1.165A3.509,3.509,0,0,1,15.872-3.526ZM14.42-3.965A1.583,1.583,0,0,0,13.871-5.2a1.963,1.963,0,0,0-1.33-.464,1.786,1.786,0,0,0-1.232.457,1.912,1.912,0,0,0-.61,1.238Zm5.7.561L22.289,0H20.716L19.264-2.281,17.9,0H16.446l2.172-3.306L16.446-6.722h1.574l1.452,2.281,1.366-2.281h1.452Zm4.831-2.184v3.721a.714.714,0,0,0,.177.543.88.88,0,0,0,.6.165h.854V0h-1.1a2.116,2.116,0,0,1-1.44-.439,1.81,1.81,0,0,1-.5-1.427V-5.588h-.793V-6.722h.793V-8.394h1.4v1.671h1.635v1.135ZM33.025-5v1.171H28.011V-5Zm8.113-1.037A2.242,2.242,0,0,0,40.223-7a2.756,2.756,0,0,0-1.354-.323,2.96,2.96,0,0,0-1.5.378,2.65,2.65,0,0,0-1.031,1.074,3.362,3.362,0,0,0-.372,1.61,3.4,3.4,0,0,0,.372,1.616,2.641,2.641,0,0,0,1.031,1.08,2.96,2.96,0,0,0,1.5.378,2.655,2.655,0,0,0,1.842-.634,2.757,2.757,0,0,0,.866-1.72H38.393v-1.11h4.673v1.086a4.174,4.174,0,0,1-.7,1.818A4.173,4.173,0,0,1,40.888-.421a4.158,4.158,0,0,1-2.019.494,4.382,4.382,0,0,1-2.184-.555,4.139,4.139,0,0,1-1.568-1.543,4.33,4.33,0,0,1-.579-2.233,4.33,4.33,0,0,1,.579-2.233,4.126,4.126,0,0,1,1.574-1.543,4.392,4.392,0,0,1,2.178-.555,4.424,4.424,0,0,1,2.409.665A3.786,3.786,0,0,1,42.81-6.039Zm9.455,2.513a4.348,4.348,0,0,1-.049.683H45.408a1.865,1.865,0,0,0,.6,1.293,1.887,1.887,0,0,0,1.318.488A1.627,1.627,0,0,0,48.91-2h1.5a3.028,3.028,0,0,1-1.1,1.519A3.239,3.239,0,0,1,47.324.11,3.433,3.433,0,0,1,45.6-.323a3.081,3.081,0,0,1-1.2-1.22,3.722,3.722,0,0,1-.433-1.824,3.809,3.809,0,0,1,.421-1.824,2.96,2.96,0,0,1,1.183-1.214,3.522,3.522,0,0,1,1.751-.427,3.424,3.424,0,0,1,1.7.415,2.931,2.931,0,0,1,1.159,1.165A3.509,3.509,0,0,1,50.593-3.526Zm-1.452-.439A1.583,1.583,0,0,0,48.593-5.2a1.963,1.963,0,0,0-1.33-.464,1.786,1.786,0,0,0-1.232.457,1.912,1.912,0,0,0-.61,1.238Zm6.21-2.867a3.015,3.015,0,0,1,1.421.329,2.343,2.343,0,0,1,.982.976,3.211,3.211,0,0,1,.354,1.562V0H56.73V-3.758a1.951,1.951,0,0,0-.451-1.385,1.607,1.607,0,0,0-1.232-.482,1.626,1.626,0,0,0-1.238.482,1.935,1.935,0,0,0-.457,1.385V0H51.96V-6.722h1.391v.769a2.3,2.3,0,0,1,.872-.647A2.789,2.789,0,0,1,55.351-6.832ZM66.039-3.526a4.347,4.347,0,0,1-.049.683H60.854a1.865,1.865,0,0,0,.6,1.293,1.887,1.887,0,0,0,1.318.488A1.627,1.627,0,0,0,64.355-2h1.5a3.028,3.028,0,0,1-1.1,1.519A3.24,3.24,0,0,1,62.769.11a3.433,3.433,0,0,1-1.726-.433,3.081,3.081,0,0,1-1.2-1.22,3.722,3.722,0,0,1-.433-1.824,3.809,3.809,0,0,1,.421-1.824,2.96,2.96,0,0,1,1.183-1.214,3.522,3.522,0,0,1,1.751-.427,3.424,3.424,0,0,1,1.7.415,2.931,2.931,0,0,1,1.159,1.165A3.509,3.509,0,0,1,66.039-3.526Zm-1.452-.439A1.583,1.583,0,0,0,64.038-5.2a1.963,1.963,0,0,0-1.33-.464,1.786,1.786,0,0,0-1.232.457,1.912,1.912,0,0,0-.61,1.238ZM68.8-5.746a2.184,2.184,0,0,1,.811-.8,2.4,2.4,0,0,1,1.2-.287v1.44h-.354a1.694,1.694,0,0,0-1.238.415,1.983,1.983,0,0,0-.421,1.44V0H67.4V-6.722H68.8Zm2.83,2.355a3.72,3.72,0,0,1,.421-1.793A3.085,3.085,0,0,1,73.194-6.4a3.072,3.072,0,0,1,1.6-.433,2.935,2.935,0,0,1,1.385.311,2.81,2.81,0,0,1,.945.775v-.976h1.4V0h-1.4V-1a2.762,2.762,0,0,1-.964.793A2.97,2.97,0,0,1,74.774.11a2.956,2.956,0,0,1-1.586-.445A3.158,3.158,0,0,1,72.047-1.58,3.828,3.828,0,0,1,71.626-3.392Zm5.5.024a2.434,2.434,0,0,0-.287-1.208,2.013,2.013,0,0,0-.75-.781,1.963,1.963,0,0,0-1-.268,2,2,0,0,0-1,.262,1.978,1.978,0,0,0-.75.769,2.4,2.4,0,0,0-.287,1.2,2.5,2.5,0,0,0,.287,1.22,2.023,2.023,0,0,0,.756.8,1.94,1.94,0,0,0,.994.275,1.963,1.963,0,0,0,1-.268,2,2,0,0,0,.75-.787A2.469,2.469,0,0,0,77.128-3.367Zm4.856-2.22v3.721a.714.714,0,0,0,.177.543.88.88,0,0,0,.6.165h.854V0h-1.1a2.116,2.116,0,0,1-1.44-.439,1.81,1.81,0,0,1-.5-1.427V-5.588h-.793V-6.722h.793V-8.394h1.4v1.671h1.635v1.135Zm3.623-2.025a.862.862,0,0,1-.634-.256.862.862,0,0,1-.256-.634.862.862,0,0,1,.256-.634.862.862,0,0,1,.634-.256.847.847,0,0,1,.622.256.862.862,0,0,1,.256.634.862.862,0,0,1-.256.634A.847.847,0,0,1,85.607-7.613Zm.683.891V0H84.9V-6.722ZM91.036.11a3.443,3.443,0,0,1-1.72-.433,3.111,3.111,0,0,1-1.208-1.22,3.68,3.68,0,0,1-.439-1.824,3.61,3.61,0,0,1,.451-1.818,3.118,3.118,0,0,1,1.232-1.22A3.576,3.576,0,0,1,91.1-6.832a3.576,3.576,0,0,1,1.745.427,3.118,3.118,0,0,1,1.232,1.22,3.61,3.61,0,0,1,.451,1.818,3.535,3.535,0,0,1-.464,1.818A3.21,3.21,0,0,1,92.8-.323,3.639,3.639,0,0,1,91.036.11Zm0-1.208a2.07,2.07,0,0,0,1.007-.256,1.952,1.952,0,0,0,.762-.769A2.471,2.471,0,0,0,93.1-3.367a2.522,2.522,0,0,0-.281-1.238,1.894,1.894,0,0,0-.744-.762,2.035,2.035,0,0,0-1-.256,2,2,0,0,0-.994.256,1.829,1.829,0,0,0-.726.762,2.617,2.617,0,0,0-.268,1.238,2.359,2.359,0,0,0,.555,1.678A1.834,1.834,0,0,0,91.036-1.1ZM99.3-6.832a3.014,3.014,0,0,1,1.421.329,2.343,2.343,0,0,1,.982.976,3.211,3.211,0,0,1,.354,1.562V0h-1.379V-3.758a1.951,1.951,0,0,0-.451-1.385,1.607,1.607,0,0,0-1.232-.482,1.626,1.626,0,0,0-1.238.482,1.935,1.935,0,0,0-.457,1.385V0H95.9V-6.722h1.391v.769a2.3,2.3,0,0,1,.872-.647A2.789,2.789,0,0,1,99.3-6.832Zm8.406-.781a.862.862,0,0,1-.634-.256.862.862,0,0,1-.256-.634.862.862,0,0,1,.256-.634.862.862,0,0,1,.634-.256.847.847,0,0,1,.622.256.862.862,0,0,1,.256.634.862.862,0,0,1-.256.634A.847.847,0,0,1,107.7-7.613Zm.683.891V0h-1.391V-6.722Zm5.222-.11a3.014,3.014,0,0,1,1.421.329,2.343,2.343,0,0,1,.982.976,3.211,3.211,0,0,1,.354,1.562V0h-1.379V-3.758a1.951,1.951,0,0,0-.451-1.385,1.607,1.607,0,0,0-1.232-.482,1.626,1.626,0,0,0-1.238.482,1.935,1.935,0,0,0-.457,1.385V0h-1.391V-6.722h1.391v.769a2.3,2.3,0,0,1,.872-.647A2.789,2.789,0,0,1,113.606-6.832Zm14.469-1.647V0h-1.391V-3.709H122.7V0H121.3V-8.479H122.7v3.636h3.989V-8.479ZM132.821.11a3.443,3.443,0,0,1-1.72-.433,3.111,3.111,0,0,1-1.208-1.22,3.68,3.68,0,0,1-.439-1.824,3.61,3.61,0,0,1,.451-1.818,3.118,3.118,0,0,1,1.232-1.22,3.575,3.575,0,0,1,1.745-.427,3.575,3.575,0,0,1,1.745.427,3.118,3.118,0,0,1,1.232,1.22,3.61,3.61,0,0,1,.451,1.818,3.535,3.535,0,0,1-.464,1.818,3.21,3.21,0,0,1-1.263,1.226A3.639,3.639,0,0,1,132.821.11Zm0-1.208a2.07,2.07,0,0,0,1.007-.256,1.952,1.952,0,0,0,.762-.769,2.471,2.471,0,0,0,.293-1.244,2.523,2.523,0,0,0-.281-1.238,1.894,1.894,0,0,0-.744-.762,2.035,2.035,0,0,0-1-.256,2,2,0,0,0-.994.256,1.829,1.829,0,0,0-.726.762,2.617,2.617,0,0,0-.268,1.238,2.359,2.359,0,0,0,.555,1.678A1.834,1.834,0,0,0,132.821-1.1Zm6.259-7.93V0h-1.391V-9.028Zm2.538,1.415a.862.862,0,0,1-.634-.256.862.862,0,0,1-.256-.634.862.862,0,0,1,.256-.634.862.862,0,0,1,.634-.256.847.847,0,0,1,.622.256.862.862,0,0,1,.256.634.862.862,0,0,1-.256.634A.847.847,0,0,1,141.618-7.613Zm.683.891V0H140.91V-6.722ZM146.571.11a3.387,3.387,0,0,1-1.421-.287,2.5,2.5,0,0,1-.994-.781,1.946,1.946,0,0,1-.39-1.1h1.44a.982.982,0,0,0,.409.714,1.484,1.484,0,0,0,.933.287,1.572,1.572,0,0,0,.909-.226.681.681,0,0,0,.323-.58.6.6,0,0,0-.36-.561,6.746,6.746,0,0,0-1.141-.4,11.01,11.01,0,0,1-1.232-.4,2.16,2.16,0,0,1-.824-.6,1.567,1.567,0,0,1-.348-1.061,1.655,1.655,0,0,1,.317-.982,2.112,2.112,0,0,1,.909-.7,3.4,3.4,0,0,1,1.36-.256,2.809,2.809,0,0,1,1.848.579,2.081,2.081,0,0,1,.75,1.58h-1.391a.991.991,0,0,0-.366-.72,1.369,1.369,0,0,0-.891-.268,1.446,1.446,0,0,0-.842.207.642.642,0,0,0-.293.549.594.594,0,0,0,.2.451,1.39,1.39,0,0,0,.476.287q.281.1.83.262a9.024,9.024,0,0,1,1.2.4,2.237,2.237,0,0,1,.811.592,1.565,1.565,0,0,1,.354,1.037,1.739,1.739,0,0,1-.317,1.025,2.1,2.1,0,0,1-.9.708A3.341,3.341,0,0,1,146.571.11Zm5.7-5.7v3.721a.714.714,0,0,0,.177.543.88.88,0,0,0,.6.165h.854V0h-1.1a2.116,2.116,0,0,1-1.44-.439,1.81,1.81,0,0,1-.5-1.427V-5.588h-.793V-6.722h.793V-8.394h1.4v1.671H153.9v1.135Zm3.623-2.025a.862.862,0,0,1-.634-.256A.862.862,0,0,1,155-8.5a.862.862,0,0,1,.256-.634.862.862,0,0,1,.634-.256.847.847,0,0,1,.622.256.862.862,0,0,1,.256.634.862.862,0,0,1-.256.634A.847.847,0,0,1,155.892-7.613Zm.683.891V0h-1.391V-6.722Zm1.366,3.355a3.809,3.809,0,0,1,.421-1.824,2.994,2.994,0,0,1,1.165-1.214,3.37,3.37,0,0,1,1.708-.427,3.351,3.351,0,0,1,2.019.579,2.853,2.853,0,0,1,1.08,1.653h-1.5a1.587,1.587,0,0,0-.586-.781,1.729,1.729,0,0,0-1.013-.281,1.684,1.684,0,0,0-1.36.6,2.555,2.555,0,0,0-.506,1.69,2.58,2.58,0,0,0,.506,1.7,1.677,1.677,0,0,0,1.36.61,1.544,1.544,0,0,0,1.6-1.061h1.5a3,3,0,0,1-1.1,1.629,3.24,3.24,0,0,1-2,.6,3.333,3.333,0,0,1-1.708-.433,3.035,3.035,0,0,1-1.165-1.22A3.809,3.809,0,0,1,157.941-3.367Zm17.727-5.112V0h-1.391V-3.709h-3.989V0H168.9V-8.479h1.391v3.636h3.989V-8.479Zm7.991,4.953a4.348,4.348,0,0,1-.049.683h-5.136a1.865,1.865,0,0,0,.6,1.293,1.887,1.887,0,0,0,1.318.488A1.627,1.627,0,0,0,181.975-2h1.5a3.028,3.028,0,0,1-1.1,1.519,3.239,3.239,0,0,1-1.982.592,3.433,3.433,0,0,1-1.726-.433,3.081,3.081,0,0,1-1.2-1.22,3.722,3.722,0,0,1-.433-1.824,3.809,3.809,0,0,1,.421-1.824,2.96,2.96,0,0,1,1.183-1.214,3.522,3.522,0,0,1,1.751-.427,3.424,3.424,0,0,1,1.7.415,2.931,2.931,0,0,1,1.159,1.165A3.509,3.509,0,0,1,183.659-3.526Zm-1.452-.439a1.583,1.583,0,0,0-.549-1.232,1.963,1.963,0,0,0-1.33-.464A1.786,1.786,0,0,0,179.1-5.2a1.912,1.912,0,0,0-.61,1.238Zm2.355.573a3.72,3.72,0,0,1,.421-1.793A3.085,3.085,0,0,1,186.129-6.4a3.072,3.072,0,0,1,1.6-.433,2.935,2.935,0,0,1,1.385.311,2.81,2.81,0,0,1,.945.775v-.976h1.4V0h-1.4V-1a2.762,2.762,0,0,1-.964.793,2.97,2.97,0,0,1-1.391.317,2.956,2.956,0,0,1-1.586-.445,3.158,3.158,0,0,1-1.141-1.244A3.828,3.828,0,0,1,184.562-3.392Zm5.5.024a2.434,2.434,0,0,0-.287-1.208,2.013,2.013,0,0,0-.75-.781,1.963,1.963,0,0,0-1-.268,2,2,0,0,0-1,.262,1.978,1.978,0,0,0-.75.769,2.4,2.4,0,0,0-.287,1.2,2.5,2.5,0,0,0,.287,1.22,2.023,2.023,0,0,0,.756.8,1.94,1.94,0,0,0,.994.275,1.963,1.963,0,0,0,1-.268,2,2,0,0,0,.75-.787A2.469,2.469,0,0,0,190.064-3.367Zm4.624-5.661V0H193.3V-9.028Zm3.453,3.44v3.721a.714.714,0,0,0,.177.543.88.88,0,0,0,.6.165h.854V0h-1.1a2.116,2.116,0,0,1-1.44-.439,1.81,1.81,0,0,1-.5-1.427V-5.588h-.793V-6.722h.793V-8.394h1.4v1.671h1.635v1.135Zm6.393-1.244a2.819,2.819,0,0,1,1.372.329,2.345,2.345,0,0,1,.952.976,3.257,3.257,0,0,1,.348,1.562V0h-1.379V-3.758a1.951,1.951,0,0,0-.451-1.385,1.607,1.607,0,0,0-1.232-.482,1.626,1.626,0,0,0-1.238.482,1.935,1.935,0,0,0-.458,1.385V0h-1.391V-9.028h1.391v3.087a2.332,2.332,0,0,1,.9-.659A3,3,0,0,1,204.533-6.832Zm3.977,3.465a3.809,3.809,0,0,1,.421-1.824A2.994,2.994,0,0,1,210.1-6.405a3.37,3.37,0,0,1,1.708-.427,3.351,3.351,0,0,1,2.019.579A2.853,2.853,0,0,1,214.9-4.6h-1.5a1.587,1.587,0,0,0-.586-.781,1.729,1.729,0,0,0-1.013-.281,1.684,1.684,0,0,0-1.36.6,2.555,2.555,0,0,0-.506,1.69,2.58,2.58,0,0,0,.506,1.7,1.677,1.677,0,0,0,1.36.61,1.544,1.544,0,0,0,1.6-1.061h1.5a3,3,0,0,1-1.1,1.629,3.24,3.24,0,0,1-2,.6A3.333,3.333,0,0,1,210.1-.323a3.035,3.035,0,0,1-1.165-1.22A3.809,3.809,0,0,1,208.51-3.367Zm7.32-.024a3.72,3.72,0,0,1,.421-1.793A3.085,3.085,0,0,1,217.4-6.4a3.072,3.072,0,0,1,1.6-.433,2.935,2.935,0,0,1,1.385.311,2.81,2.81,0,0,1,.945.775v-.976h1.4V0h-1.4V-1a2.762,2.762,0,0,1-.964.793,2.97,2.97,0,0,1-1.391.317,2.956,2.956,0,0,1-1.586-.445,3.158,3.158,0,0,1-1.141-1.244A3.828,3.828,0,0,1,215.83-3.392Zm5.5.024a2.434,2.434,0,0,0-.287-1.208,2.013,2.013,0,0,0-.75-.781,1.963,1.963,0,0,0-1-.268,2,2,0,0,0-1,.262,1.978,1.978,0,0,0-.75.769,2.4,2.4,0,0,0-.287,1.2,2.5,2.5,0,0,0,.287,1.22,2.023,2.023,0,0,0,.756.8,1.94,1.94,0,0,0,.994.275,1.963,1.963,0,0,0,1-.268,2,2,0,0,0,.75-.787A2.469,2.469,0,0,0,221.332-3.367Zm4.624-2.379a2.184,2.184,0,0,1,.811-.8,2.4,2.4,0,0,1,1.2-.287v1.44h-.354a1.694,1.694,0,0,0-1.238.415,1.984,1.984,0,0,0-.421,1.44V0h-1.391V-6.722h1.391Zm9.455,2.22a4.348,4.348,0,0,1-.049.683h-5.136a1.865,1.865,0,0,0,.6,1.293,1.887,1.887,0,0,0,1.318.488A1.627,1.627,0,0,0,233.728-2h1.5a3.028,3.028,0,0,1-1.1,1.519,3.239,3.239,0,0,1-1.982.592,3.433,3.433,0,0,1-1.726-.433,3.081,3.081,0,0,1-1.2-1.22,3.722,3.722,0,0,1-.433-1.824,3.809,3.809,0,0,1,.421-1.824,2.96,2.96,0,0,1,1.183-1.214,3.522,3.522,0,0,1,1.751-.427,3.424,3.424,0,0,1,1.7.415A2.931,2.931,0,0,1,235-5.252,3.509,3.509,0,0,1,235.411-3.526Zm-1.452-.439A1.583,1.583,0,0,0,233.41-5.2a1.963,1.963,0,0,0-1.33-.464,1.786,1.786,0,0,0-1.232.457,1.912,1.912,0,0,0-.61,1.238Z" transform="translate(70 115)" fill="#303030"/></g></svg>